<?xml version="1.0" encoding="UTF-8"?> <svg xmlns="http://www.w3.org/2000/svg" width="192" height="24" viewBox="0 0 192 24" fill="none"><g clip-path="url(#clip0_1556_1612)"><path d="M38.155 0.333496H41.1254L30.9635 23.6668L20.8018 0.333496H23.7721L30.9636 17.5399L38.155 0.333496Z" fill="#08233E"></path><path d="M47.5313 7.25C48.1109 5.79493 48.9266 4.528 49.9769 3.44987C51.0279 2.3724 52.2641 1.528 53.687 0.916667C55.1092 0.305667 56.6526 0 58.316 0C60.0011 0 61.5496 0.305667 62.9616 0.916667C64.3736 1.528 65.6047 2.3724 66.655 3.44987C67.7054 4.528 68.521 5.79493 69.1007 7.25C69.6803 8.70573 69.9708 10.2891 69.9708 12C69.9708 13.6891 69.6803 15.2666 69.1007 16.7334C68.521 18.1999 67.7054 19.4723 66.655 20.5501C65.6047 21.6283 64.3736 22.4723 62.9616 23.0833C61.5496 23.6943 60.0011 24 58.316 24C56.6526 24 55.1092 23.6943 53.687 23.0833C52.2641 22.4723 51.0279 21.6283 49.9769 20.5501C48.9266 19.4723 48.1109 18.1999 47.5313 16.7334C46.951 15.2666 46.6611 13.6891 46.6611 12C46.6611 10.2891 46.951 8.70573 47.5313 7.25ZM50.7489 16.6999C51.5036 18.0781 52.5379 19.1667 53.8511 19.9668C55.1644 20.7666 56.6526 21.1667 58.316 21.1667C60.0011 21.1667 61.4951 20.7666 62.7975 19.9668C64.0991 19.1667 65.1283 18.0781 65.8837 16.6999C66.6384 15.3223 67.016 13.7559 67.016 12C67.016 10.2441 66.6384 8.67807 65.8837 7.30013C65.1283 5.92253 64.0991 4.83333 62.7975 4.0332C61.4951 3.2334 60.0011 2.83333 58.316 2.83333C56.6526 2.83333 55.1644 3.2334 53.8511 4.0332C52.5379 4.83333 51.5036 5.92253 50.7489 7.30013C49.9936 8.67807 49.6159 10.2448 49.6159 12C49.6159 13.7552 49.9936 15.3223 50.7489 16.6999Z" fill="#08233E"></path><path d="M134.523 0.333496V21.0002H143.551V23.6668H131.732V0.333496H134.523Z" fill="#08233E"></path><path d="M167.198 23.625H170.158L160.033 0.375L149.907 23.625H152.867L155.633 16.9821H164.418L167.198 23.625ZM163.374 14.4515H156.7L160.033 6.48007L163.374 14.4515Z" fill="#08233E"></path><path d="M2.79059 12.3337H13.1322V9.66699H0V23.667H13.1322V21.0003H2.79059V12.3337Z" fill="#08233E"></path><path d="M13.1322 0.333496H0V3.00016H13.1322V0.333496Z" fill="#08233E"></path><path d="M80.2513 19.0667C80.8309 19.778 81.4824 20.3333 82.2044 20.7334C82.9264 21.1335 83.7472 21.3333 84.6667 21.3333C85.8921 21.3333 86.877 20.9889 87.6215 20.3001C88.3653 19.6113 88.7378 18.7334 88.7378 17.6667C88.7378 16.6224 88.4967 15.7891 88.0152 15.1667C87.5336 14.5449 86.9046 14.0391 86.1274 13.6501C85.3503 13.2614 84.5244 12.9115 83.6491 12.5999C83.0797 12.4001 82.4449 12.139 81.7447 11.8167C81.0438 11.4948 80.377 11.0833 79.7422 10.5833C79.1073 10.0833 78.5873 9.4668 78.1827 8.7334C77.7774 8 77.5755 7.09993 77.5755 6.0332C77.5755 4.87827 77.8595 3.84473 78.4289 2.93327C78.9977 2.02247 79.7858 1.30567 80.7925 0.7832C81.7992 0.2614 82.9483 0 84.2397 0C85.4875 0 86.5763 0.238933 87.5067 0.7168C88.4365 1.19467 89.2303 1.80567 89.8869 2.55013C90.5435 3.29493 91.0571 4.07813 91.4297 4.90007L89.0334 6.30013C88.7487 5.72233 88.3871 5.1556 87.9498 4.59993C87.5118 4.04493 86.9815 3.5892 86.3576 3.2334C85.7337 2.87827 84.9732 2.69987 84.0755 2.69987C82.8284 2.69987 81.9197 3.00587 81.351 3.61653C80.7816 4.2282 80.4975 4.91147 80.4975 5.66667C80.4975 6.31153 80.6617 6.9056 80.99 7.44987C81.3183 7.9948 81.8704 8.50587 82.6475 8.9834C83.424 9.4616 84.4808 9.93327 85.8158 10.4001C86.4282 10.6224 87.0739 10.9115 87.7529 11.2666C88.4307 11.6224 89.0604 12.0723 89.6407 12.6165C90.2203 13.1615 90.6961 13.8167 91.0687 14.5833C91.4406 15.3499 91.6265 16.2666 91.6265 17.3333C91.6265 18.3558 91.4348 19.278 91.052 20.0999C90.6692 20.9225 90.144 21.6224 89.4765 22.1999C88.8084 22.778 88.0537 23.2223 87.2111 23.5332C86.3685 23.8444 85.4875 24 84.568 24C83.3208 24 82.166 23.7275 81.1048 23.1833C80.0429 22.639 79.1125 21.9167 78.3142 21.0166C77.5145 20.1165 76.8637 19.1556 76.3604 18.1335L78.5931 16.5999C79.1182 17.5332 79.671 18.3558 80.2513 19.0667Z" fill="#08233E"></path><path d="M188.541 23.7085H192L185.119 14.0674C185.701 13.9272 186.258 13.7407 186.778 13.4893C187.953 12.9202 188.886 12.1067 189.579 11.047C190.27 9.98786 190.616 8.74452 190.616 7.31693C190.616 5.86773 190.27 4.61919 189.579 3.57053C188.886 2.52253 187.953 1.71366 186.778 1.14526C185.603 0.576192 184.268 0.291992 182.775 0.291992H176.515V23.7087H179.315V14.342H182.123L188.541 23.7085ZM179.315 2.80079H182.775C183.763 2.80079 184.636 2.97979 185.394 3.33593C186.152 3.69333 186.745 4.20619 187.173 4.87526C187.602 5.54433 187.816 6.35839 187.816 7.31686C187.816 8.27599 187.602 9.09013 187.173 9.75913C186.745 10.4282 186.152 10.9411 185.394 11.2978C184.636 11.6545 183.763 11.8329 182.775 11.8329H179.315V2.80079Z" fill="#08233E"></path><path d="M125.141 11.1018C123.142 7.32206 120.082 4.73986 116.703 3.55999C114.992 3.06066 113.262 2.70826 111.529 2.92072C109.811 3.03666 108.137 3.49339 106.64 4.31173C105.095 5.04319 103.765 6.19666 102.669 7.53733C101.528 8.85846 100.733 10.4607 100.168 12.1789C99.1321 15.6621 99.4105 19.6941 101.297 23.5345L101.311 23.5636C101.345 23.6328 101.317 23.7169 101.249 23.7514C101.191 23.7807 101.123 23.7647 101.083 23.717C99.7228 22.0989 98.7077 20.1703 98.1741 18.1001C97.6313 16.0301 97.6046 13.8385 97.9929 11.7353C98.8123 7.53006 101.579 3.74406 105.362 1.78999C109.136 -0.177608 113.768 -0.283208 117.617 1.49893C119.525 2.40753 121.262 3.70906 122.598 5.36579C123.958 7.00279 124.888 8.97466 125.412 11.0315C125.431 11.1063 125.387 11.1825 125.313 11.2018C125.251 11.2183 125.187 11.1881 125.157 11.1327L125.141 11.1018Z" fill="#F26531"></path></g><defs><clipPath id="clip0_1556_1612"><rect width="192" height="24" fill="white"></rect></clipPath></defs></svg>