<?xml version="1.0" encoding="UTF-8" standalone="no"?>
<!-- Created with Inkscape (http://www.inkscape.org/) -->

<svg
   version="1.1"
   id="svg2"
   width="312.00604"
   height="55.53973"
   viewBox="0 0 312.00605 55.539731"
   sodipodi:docname="Enphase logo.svg"
   inkscape:version="1.2.2 (732a01da63, 2022-12-09)"
   xmlns:inkscape="http://www.inkscape.org/namespaces/inkscape"
   xmlns:sodipodi="http://sodipodi.sourceforge.net/DTD/sodipodi-0.dtd"
   xmlns="http://www.w3.org/2000/svg"
   xmlns:svg="http://www.w3.org/2000/svg">
  <defs
     id="defs6">
    <clipPath
       clipPathUnits="userSpaceOnUse"
       id="clipPath34">
      <path
         d="m 37.7,189.384 h 91.012 V 205.2 H 37.7 Z"
         id="path32" />
    </clipPath>
    <clipPath
       clipPathUnits="userSpaceOnUse"
       id="clipPath50">
      <path
         d="M 0,0 H 612 V 792 H 0 Z"
         id="path48" />
    </clipPath>
    <clipPath
       clipPathUnits="userSpaceOnUse"
       id="clipPath82">
      <path
         d="m 37.7,189.384 h 91.012 V 205.2 H 37.7 Z"
         id="path80" />
    </clipPath>
  </defs>
  <sodipodi:namedview
     id="namedview4"
     pagecolor="#ffffff"
     bordercolor="#000000"
     borderopacity="0.25"
     inkscape:showpageshadow="2"
     inkscape:pageopacity="0.0"
     inkscape:pagecheckerboard="0"
     inkscape:deskcolor="#d1d1d1"
     showgrid="false"
     inkscape:zoom="4.6139848"
     inkscape:cx="160.16525"
     inkscape:cy="7.4772679"
     inkscape:window-width="1920"
     inkscape:window-height="991"
     inkscape:window-x="-9"
     inkscape:window-y="-9"
     inkscape:window-maximized="1"
     inkscape:current-layer="g8" />
  <g
     id="g8"
     inkscape:groupmode="layer"
     inkscape:label="ESG Report 2022"
     transform="matrix(1.3333333,0,0,-1.3333333,-50.266666,273.5996)">
    <g
       id="g28"
       transform="matrix(2.6337625,0,0,2.6337625,-61.592846,-335.24757)">
      <g
         id="g30"
         clip-path="url(#clipPath34)">
        <g
           id="g36"
           transform="translate(45.4301,189.3414)">
          <path
             d="m 0,0 c -3.031,0 -5.792,1.737 -7.099,4.493 -0.226,0.478 -0.022,1.049 0.456,1.276 0.477,0.226 1.048,0.022 1.275,-0.455 C -4.345,3.154 -2.139,1.822 0.248,1.92 2.464,2.012 4.429,3.315 5.377,5.32 5.603,5.799 6.173,6.003 6.651,5.777 7.129,5.551 7.334,4.98 7.108,4.502 5.855,1.851 3.257,0.128 0.327,0.007 0.218,0.002 0.109,0 0,0"
             style="fill:#f27321;fill-opacity:1;fill-rule:nonzero;stroke:none"
             id="path38" />
        </g>
        <g
           id="g40"
           transform="translate(52.1997,196.3997)">
          <path
             d="m 0,0 h -13.542 c -0.529,0 -0.958,0.429 -0.958,0.958 0,0.528 0.429,0.957 0.958,0.957 h 12.505 c -0.464,2.815 -2.918,4.97 -5.861,4.97 -2.217,0 -4.234,-1.22 -5.264,-3.186 -0.245,-0.468 -0.824,-0.649 -1.292,-0.403 -0.469,0.245 -0.649,0.824 -0.404,1.292 1.362,2.598 4.029,4.212 6.96,4.212 C -2.574,8.8 0.95,5.283 0.957,0.959 0.958,0.705 0.857,0.461 0.678,0.281 0.498,0.101 0.254,0 0,0"
             style="fill:#f27321;fill-opacity:1;fill-rule:nonzero;stroke:none"
             id="path42" />
        </g>
      </g>
    </g>
    <g
       id="g44"
       transform="matrix(2.6337625,0,0,2.6337625,-61.592846,-335.24757)">
      <g
         id="g46"
         clip-path="url(#clipPath50)">
        <g
           id="g52"
           transform="translate(64.7067,193.7117)" />
        <g
           id="g56"
           transform="translate(125.682,193.7117)" />
        <g
           id="g60"
           transform="translate(107.7473,193.1822)" />
        <g
           id="g64"
           transform="translate(75.3835,191.9794)" />
        <g
           id="g68"
           transform="translate(96.134,202.3573)" />
        <g
           id="g72"
           transform="translate(112.935,191.79)" />
      </g>
    </g>
    <g
       id="g76"
       transform="matrix(2.6337625,0,0,2.6337625,-61.592846,-335.24757)">
      <g
         id="g78"
         clip-path="url(#clipPath82)">
        <g
           id="g84"
           transform="translate(79.8409,191.9794)">
          <path
             id="path86"
             style="fill:#5e6161;fill-opacity:1;fill-rule:nonzero;stroke:none"
             d="m 0,0 c -0.479,0 -0.866,0.388 -0.866,0.866 v 8.646 c 0,0.478 0.387,0.867 0.866,0.867 h 3.556 c 1.942,0 3.352,-1.361 3.352,-3.237 0,-1.876 -1.41,-3.238 -3.352,-3.238 H 0.866 V 0.866 C 0.866,0.388 0.478,0 0,0 m 0.866,5.636 h 2.69 c 0.984,0 1.619,0.591 1.619,1.506 0,0.914 -0.635,1.505 -1.619,1.505 h -2.69 z m 32.2281,-5.8254 c -1.304,0 -2.645,0.516 -3.57,1.439 -0.339,0.337 -0.34,0.886 -0.002,1.225 0.338,0.338 0.886,0.339 1.225,0.002 0.922,-0.919 2.32,-1.098 3.225,-0.8 0.395,0.13 0.884,0.407 0.972,0.985 0.074,0.488 -0.19,0.948 -1.721,1.606 -0.142,0.061 -0.265,0.114 -0.371,0.167 -0.071,0.035 -0.212,0.092 -0.361,0.152 -0.969,0.389 -2.987,1.198 -2.95,3.066 0.022,1.142 0.713,2.098 1.848,2.557 1.585,0.64 3.585,0.198 4.862,-1.074 0.339,-0.338 0.34,-0.887 0.002,-1.225 -0.337,-0.339 -0.886,-0.34 -1.225,-0.002 -0.892,0.889 -2.18,1.022 -2.991,0.694 -0.498,-0.201 -0.756,-0.532 -0.764,-0.984 -0.013,-0.672 1.207,-1.162 1.863,-1.425 0.192,-0.077 0.357,-0.143 0.492,-0.21 0.06,-0.031 0.166,-0.076 0.279,-0.125 0.92,-0.395 3.075,-1.321 2.75,-3.457 -0.17,-1.114 -0.951,-1.978 -2.143,-2.37 -0.453,-0.149 -0.934,-0.221 -1.42,-0.221 m -16.801,10.5673 c -0.478,0 -0.866,-0.388 -0.866,-0.866 v -3.269 h -4.939 v 3.269 c 0,0.478 -0.388,0.866 -0.866,0.866 -0.479,0 -0.867,-0.388 -0.867,-0.866 v -4.133 c 0,0 0,-10e-4 0,-10e-4 0,-0.001 0,-0.002 0,-0.003 v -4.509 c 0,-0.478 0.388,-0.866 0.867,-0.866 0.478,0 0.866,0.388 0.866,0.866 v 3.645 h 4.939 v -3.645 c 0,-0.478 0.388,-0.866 0.866,-0.866 0.478,0 0.866,0.388 0.866,0.866 v 8.646 c 0,0.478 -0.388,0.866 -0.866,0.866 M -4.4574,0 h -0.221 c -0.267,0 -0.519,0.123 -0.683,0.333 l -5.38,6.895 V 0.866 c 0,-0.478 -0.388,-0.866 -0.866,-0.866 -0.478,0 -0.866,0.388 -0.866,0.866 v 8.646 c 0,0.478 0.388,0.866 0.866,0.866 h 0.182 c 0.267,0 0.519,-0.123 0.683,-0.333 l 5.419,-6.944 v 6.411 c 0,0.478 0.388,0.866 0.866,0.866 0.478,0 0.866,-0.388 0.866,-0.866 V 0.866 C -3.5914,0.388 -3.9794,0 -4.4574,0 m 32.3638,1.2028 -1.001,2.374 c -0.002,0.004 -0.003,0.007 -0.004,0.01 l -2.642,6.262 c -0.004,0.009 -0.009,0.018 -0.013,0.027 -0.007,0.015 -0.014,0.03 -0.022,0.045 -0.006,0.012 -0.013,0.023 -0.02,0.035 -0.008,0.013 -0.015,0.025 -0.023,0.037 -0.008,0.012 -0.017,0.024 -0.026,0.035 -0.008,0.012 -0.016,0.023 -0.025,0.033 -0.009,0.011 -0.019,0.022 -0.028,0.033 -0.01,0.01 -0.019,0.02 -0.029,0.03 -0.01,0.01 -0.02,0.019 -0.03,0.029 -0.011,0.009 -0.021,0.019 -0.033,0.028 -0.01,0.009 -0.021,0.017 -0.032,0.025 -0.012,0.009 -0.024,0.018 -0.036,0.026 -0.012,0.008 -0.024,0.015 -0.037,0.022 -0.011,0.007 -0.023,0.015 -0.035,0.021 -0.015,0.008 -0.03,0.015 -0.044,0.022 -0.01,0.004 -0.019,0.009 -0.028,0.013 -0.002,0.001 -0.004,0.001 -0.006,0.002 -0.015,0.006 -0.031,0.012 -0.047,0.017 -0.011,0.004 -0.023,0.009 -0.034,0.012 -0.013,0.004 -0.026,0.007 -0.039,0.01 -0.06,0.015 -0.121,0.024 -0.181,0.026 -0.01,0 -0.02,0.001 -0.03,0.001 -0.006,0 -0.012,-0.001 -0.018,-0.001 -0.066,-10e-4 -0.132,-0.01 -0.198,-0.027 -0.011,-0.003 -0.022,-0.005 -0.033,-0.009 -0.013,-0.003 -0.026,-0.009 -0.039,-0.013 -0.014,-0.005 -0.028,-0.01 -0.043,-0.016 -0.001,-10e-4 -0.004,-10e-4 -0.005,-0.002 -0.011,-0.005 -0.021,-0.01 -0.032,-0.015 -0.013,-0.006 -0.027,-0.012 -0.04,-0.019 -0.013,-0.007 -0.026,-0.015 -0.039,-0.023 -0.011,-0.007 -0.022,-0.014 -0.034,-0.021 -0.013,-0.008 -0.025,-0.018 -0.037,-0.027 -0.01,-0.008 -0.021,-0.015 -0.031,-0.023 -0.011,-0.01 -0.023,-0.02 -0.034,-0.03 -0.01,-0.009 -0.019,-0.018 -0.029,-0.027 -0.01,-0.011 -0.02,-0.021 -0.03,-0.032 -0.009,-0.01 -0.018,-0.021 -0.027,-0.031 -0.009,-0.011 -0.017,-0.023 -0.026,-0.034 -0.008,-0.012 -0.017,-0.023 -0.024,-0.035 -0.009,-0.012 -0.016,-0.025 -0.024,-0.038 -0.007,-0.011 -0.014,-0.022 -0.02,-0.034 -0.008,-0.015 -0.015,-0.03 -0.022,-0.046 -0.004,-0.009 -0.009,-0.017 -0.013,-0.026 l -2.641,-6.262 c -0.002,-0.003 -0.003,-0.007 -0.005,-0.01 l -1.001,-2.374 c -0.186,-0.441 0.021,-0.949 0.462,-1.135 0.109,-0.046 0.223,-0.068 0.336,-0.068 0.338,0 0.658,0.199 0.798,0.53 l 0.78,1.849 h 4.138 l 0.78,-1.849 c 0.139,-0.331 0.461,-0.53 0.798,-0.53 0.112,0 0.227,0.022 0.336,0.068 0.441,0.186 0.648,0.694 0.462,1.135 m -5.783,2.908 1.338,3.173 1.338,-3.173 z M 45.8411,1.7323 h -5.023 v 2.779 h 3.564 c 0.479,0 0.867,0.388 0.867,0.866 0,0.478 -0.388,0.866 -0.867,0.866 h -3.564 v 2.402 h 4.658 c 0.479,0 0.866,0.388 0.866,0.867 0,0.478 -0.387,0.866 -0.866,0.866 h -5.524 c -0.479,0 -0.867,-0.388 -0.867,-0.866 v -8.646 c 0,-0.478 0.388,-0.866 0.867,-0.866 h 5.889 c 0.479,0 0.866,0.388 0.866,0.866 0,0.478 -0.387,0.866 -0.866,0.866 m -60.9753,0 h -5.023 v 2.779 h 3.564 c 0.479,0 0.866,0.388 0.866,0.866 0,0.478 -0.387,0.866 -0.866,0.866 h -3.564 v 2.402 h 4.658 c 0.479,0 0.867,0.388 0.867,0.867 0,0.478 -0.388,0.866 -0.867,0.866 h -5.524 c -0.479,0 -0.867,-0.388 -0.867,-0.866 v -8.646 c 0,-0.478 0.388,-0.866 0.867,-0.866 h 5.889 c 0.479,0 0.866,0.388 0.866,0.866 0,0.478 -0.387,0.866 -0.866,0.866" />
        </g>
      </g>
    </g>
  </g>
</svg>
